# xmcd
# 
# Track frame offsets:
#     150
#     19357
#     35462
#     50925
#     66125
#     85808
#     100037
#     116506
#     133944
#     147720
# 
# Disc length: 2209
# 
# Revision: 0
# Processed by: cddbd v1.5.2PL0 Copyright (c) Steve Scherf et al.
# Submitted via: fre:ac v1.1beta1pre4
# 
DISCID=95089f0a
DTITLE=Mark D. Sanders - History and Hope
DYEAR=2011
DGENRE=Country
TTITLE0=I Hope You Dance
TTITLE1=One Of These Days
TTITLE2=You Need Me
TTITLE3=My Love Will Keep
TTITLE4=My Old Man's Son
TTITLE5=Here's Hopin'
TTITLE6=That's How I Live
TTITLE7=Off To Join The World
TTITLE8=My Brother Didn't
TTITLE9=His Martin Guitar
EXTD=
EXTT0=
EXTT1=
EXTT2=
EXTT3=
EXTT4=
EXTT5=
EXTT6=
EXTT7=
EXTT8=
EXTT9=
PLAYORDER=
